PathFileType	4	(X/Y/Z)	/Users/itak/Documents/Research/Walk-IL/dataset/trc/00152_00007.trc
DataRate	CameraRate	NumFrames	NumMarkers	Units	OrigDataRate	OrigDataStartFrame	OrigNumFrames
100.000000	100.000000	4	53	mm	100.000000	201	537
Frame#	Time	RPSI			LPSI			L3			STRN			T10			C7			CLAV			RBAK			LBAK			LSHO			LUPA			LAEL			LAOL			LWTS			LWPS			LFRA			LIFD			LHPS			LHTS			RSHO			RUPA			RAEL			RAOL			RWTS			RWPS			RFRA			RIFD			RHTS			RHPS			RBHD			LFHD			RFHD			LBHD			LHIP			RHIP			RASI			LASI			LKNE			LTHI			LANK			LTIP			LTOE			LMT1			LMT5			LHEE			RKNE			RTHI			RANK			RTIP			RTOE			RMT1			RMT5			RHEE			
		X1	Y1	Z1	X2	Y2	Z2	X3	Y3	Z3	X4	Y4	Z4	X5	Y5	Z5	X6	Y6	Z6	X7	Y7	Z7	X8	Y8	Z8	X9	Y9	Z9	X10	Y10	Z10	X11	Y11	Z11	X12	Y12	Z12	X13	Y13	Z13	X14	Y14	Z14	X15	Y15	Z15	X16	Y16	Z16	X17	Y17	Z17	X18	Y18	Z18	X19	Y19	Z19	X20	Y20	Z20	X21	Y21	Z21	X22	Y22	Z22	X23	Y23	Z23	X24	Y24	Z24	X25	Y25	Z25	X26	Y26	Z26	X27	Y27	Z27	X28	Y28	Z28	X29	Y29	Z29	X30	Y30	Z30	X31	Y31	Z31	X32	Y32	Z32	X33	Y33	Z33	X34	Y34	Z34	X35	Y35	Z35	X36	Y36	Z36	X37	Y37	Z37	X38	Y38	Z38	X39	Y39	Z39	X40	Y40	Z40	X41	Y41	Z41	X42	Y42	Z42	X43	Y43	Z43	X44	Y44	Z44	X45	Y45	Z45	X46	Y46	Z46	X47	Y47	Z47	X48	Y48	Z48	X49	Y49	Z49	X50	Y50	Z50	X51	Y51	Z51	X52	Y52	Z52	X53	Y53	Z53	

202	2.01	-944.1660766601562	1116.783081054688	-517.4039916992188	-948.6311645507812	1113.464599609375	-653.285888671875	-951.026123046875	1154.950927734375	-589.9591674804688	-717.4268188476562	1338.178955078125	-595.168212890625	-972.14794921875	1309.487548828125	-597.1102294921875	-909.8663940429688	1598.35791015625	-612.910400390625	-740.443115234375	1475.7138671875	-597.9612426757812	-982.5249633789062	1418.492919921875	-526.3220825195312	-913.5828857421875	1578.817260742188	-714.951416015625	-825.9374389648438	1556.177368164062	-779.5847778320312	-854.0025634765625	1428.058959960938	-852.8916015625	-865.0125732421875	1208.860961914062	-876.4111938476562	-938.7064819335938	1205.733154296875	-830.2088623046875	-803.0988159179688	942.8658447265625	-815.811279296875	-878.760986328125	925.207275390625	-857.0764770507812	-860.7352905273438	1091.136962890625	-877.984619140625	-814.0338745117188	751.0336303710938	-790.4752197265625	-857.5401000976562	847.7404174804688	-851.4822387695312	-795.7633056640625	852.9234008789062	-823.0291748046875	-863.4375610351562	1573.37841796875	-428.6247253417969	-890.1488647460938	1501.95947265625	-366.1660766601562	-934.9207153320312	1210.84716796875	-348.0549926757812	-929.2125244140625	1208.882934570312	-444.9515380859375	-812.6803588867188	956.7061157226562	-342.6059265136719	-890.7042846679688	946.6051025390625	-319.4452209472656	-920.3494262695312	1136.389770507812	-329.263671875	-803.1346435546875	759.6387329101562	-355.1365661621094	-793.41455078125	846.9669189453125	-333.3023376464844	-862.633056640625	844.1876220703125	-310.9380493164062	-870.0651245117188	1756.11376953125	-529.1301879882812	-691.682373046875	1825.618530273438	-636.8202514648438	-707.3001098632812	1821.163940429688	-507.9107055664062	-862.7799682617188	1765.034912109375	-664.0087280273438	-864.0146484375	1016.805725097656	-762.5117797851562	-812.03125	1024.509399414062	-400.7745971679688	-732.6729736328125	1090.74267578125	-461.5647277832031	-752.4328002929688	1078.704833984375	-725.6129150390625	-828.7334594726562	504.0318298339844	-746.0949096679688	-849.200439453125	657.7512817382812	-763.6498413085938	-1249.547241210938	164.2282409667969	-728.9080200195312	-1060.735229492188	355.4024658203125	-762.3277587890625	-1097.973388671875	28.68867874145508	-648.4688720703125	-1148.148803710938	74.65007781982422	-625.6468505859375	-1184.345825195312	59.16647720336914	-732.0305786132812	-1282.306274414062	232.0348663330078	-675.9263916015625	-730.4877319335938	540.52978515625	-473.1637268066406	-761.4578247070312	813.3582763671875	-418.2815856933594	-773.8829956054688	25.46448135375977	-525.1781005859375	-735.1870727539062	403.4827575683594	-469.6829833984375	-543.9204711914062	52.18731689453125	-572.4303588867188	-601.7576293945312	36.65374374389648	-614.5501098632812	-642.196533203125	42.19320297241211	-501.9623107910156	-828.9483642578125	26.81494331359863	-574.26416015625	
203	2.02	-936.1834716796875	1116.848510742188	-516.9461059570312	-940.395751953125	1113.2041015625	-652.826416015625	-942.8997802734375	1154.80419921875	-589.3922729492188	-709.6007690429688	1338.840576171875	-593.6246948242188	-964.1014404296875	1309.33056640625	-596.1846313476562	-902.8941040039062	1598.486572265625	-611.5770263671875	-733.0629272460938	1476.276611328125	-596.4329223632812	-975.0328979492188	1418.3388671875	-525.0900268554688	-906.3628540039062	1578.942626953125	-713.6600952148438	-818.5498657226562	1556.5107421875	-778.1607055664062	-846.125732421875	1428.230102539062	-851.4007568359375	-856.1989135742188	1209.143310546875	-875.40185546875	-929.5834350585938	1205.384765625	-828.7045288085938	-792.1433715820312	943.4550170898438	-816.2611694335938	-868.0929565429688	925.42236328125	-856.8650512695312	-851.2159423828125	1091.485595703125	-877.3858642578125	-801.4368896484375	751.4694213867188	-791.7102661132812	-846.15185546875	848.1148681640625	-851.8507690429688	-784.141357421875	853.6511840820312	-823.9613647460938	-856.580078125	1573.6337890625	-427.2355346679688	-882.8594970703125	1501.995971679688	-364.7200317382812	-925.66748046875	1210.678955078125	-345.9137573242188	-920.2568969726562	1208.554077148438	-442.830322265625	-801.5704956054688	957.48291015625	-340.3136596679688	-879.4768676757812	946.8419189453125	-316.9508666992188	-910.51904296875	1136.368896484375	-327.0346984863281	-790.5804443359375	760.4352416992188	-352.4170227050781	-781.4248657226562	847.9056396484375	-330.8006286621094	-850.6328735351562	844.6734619140625	-308.2931518554688	-863.4423828125	1756.341674804688	-527.6019897460938	-685.306640625	1826.40478515625	-635.2734985351562	-700.9561767578125	1821.898315429688	-506.3706970214844	-856.1824340820312	1765.27978515625	-662.5059814453125	-854.5855712890625	1016.715087890625	-761.5012817382812	-804.5188598632812	1024.858764648438	-399.7274169921875	-724.8076171875	1091.177734375	-459.947998046875	-743.4892578125	1079.336059570312	-724.0374755859375	-808.5732421875	504.1524353027344	-745.7611083984375	-832.4009399414062	657.6478881835938	-763.2620239257812	-1234.640258789062	171.1749114990234	-732.36376953125	-1041.809204101562	357.9626159667969	-763.89599609375	-1084.98974609375	30.3345832824707	-654.6018676757812	-1134.461181640625	78.73427581787109	-630.2027587890625	-1171.115844726562	64.82933044433594	-736.6956176757812	-1266.674560546875	238.5844421386719	-678.882080078125	-725.361328125	540.2662963867188	-472.819580078125	-754.8353881835938	813.3341064453125	-417.5210571289062	-773.7290649414062	25.5665454864502	-525.2296142578125	-731.2552490234375	403.0914611816406	-469.4936828613281	-543.4790649414062	50.81142425537109	-572.51318359375	-601.5082397460938	35.88998031616211	-614.63623046875	-641.9564819335938	41.86201858520508	-501.9977111816406	-828.7879638671875	26.79094505310059	-574.6661376953125	
204	2.03	-928.2839965820312	1116.903930664062	-516.5230102539062	-932.2388916015625	1112.9892578125	-652.412841796875	-934.8707885742188	1154.696044921875	-588.8645629882812	-701.9048461914062	1339.517822265625	-592.1491088867188	-956.20751953125	1309.205200195312	-595.3195190429688	-896.023681640625	1598.628051757812	-610.3209228515625	-725.7814331054688	1476.866088867188	-594.9876098632812	-967.670654296875	1418.20751953125	-523.9474487304688	-899.238525390625	1579.083374023438	-712.4462890625	-811.2567138671875	1556.857299804688	-776.8323364257812	-838.3558959960938	1428.376098632812	-849.95068359375	-847.3859252929688	1209.384399414062	-874.3189086914062	-920.4076538085938	1204.985107421875	-827.0420532226562	-781.1260375976562	944.0233764648438	-816.7122802734375	-857.4308471679688	925.6178588867188	-856.5120849609375	-841.7085571289062	1091.801147460938	-876.7012939453125	-788.768310546875	751.90673828125	-792.92529296875	-834.8294067382812	848.466552734375	-852.0921020507812	-772.4681396484375	854.4032592773438	-824.8798217773438	-849.823974609375	1573.879760742188	-425.9263916015625	-875.64306640625	1502.013793945312	-363.3510437011719	-916.3750610351562	1210.504272460938	-343.7723999023438	-911.3074340820312	1208.187622070312	-440.7059631347656	-790.390380859375	958.2909545898438	-337.995361328125	-868.1663818359375	947.1115112304688	-314.4015502929688	-900.6145629882812	1136.358764648438	-324.7889709472656	-777.962158203125	761.2842407226562	-349.5857543945312	-769.3623657226562	848.883544921875	-328.2276611328125	-838.52294921875	845.2086791992188	-305.5438842773438	-856.8065795898438	1756.603271484375	-526.0975952148438	-678.8977661132812	1827.143920898438	-633.7505493164062	-694.60791015625	1822.570068359375	-504.8599548339844	-849.57568359375	1765.566528320312	-661.0650024414062	-845.2249145507812	1016.705139160156	-760.5508422851562	-797.1156616210938	1025.179809570312	-398.719482421875	-717.12939453125	1091.63916015625	-458.3931579589844	-734.6600952148438	1079.998901367188	-722.51513671875	-788.2562255859375	504.5924682617188	-745.09423828125	-815.5151977539062	657.7908935546875	-762.6705322265625	-1218.45654296875	177.2622222900391	-735.54931640625	-1022.537841796875	360.4105224609375	-765.1076049804688	-1068.963134765625	32.6229248046875	-661.7606201171875	-1118.225952148438	82.61447143554688	-635.4266357421875	-1155.38671875	70.66502380371094	-742.0481567382812	-1250.397094726562	243.5771636962891	-681.11572265625	-720.5073852539062	539.9548950195312	-472.4259033203125	-748.3485107421875	813.27734375	-416.7361145019531	-773.6280517578125	25.64461517333984	-525.2747192382812	-727.5570678710938	402.68798828125	-469.2663269042969	-543.1281127929688	49.58444976806641	-572.53857421875	-601.2804565429688	35.24180603027344	-614.6727294921875	-641.779541015625	41.55262756347656	-501.9893798828125	-828.6542358398438	26.77864074707031	-575.0416259765625	
205	2.04	-920.4501342773438	1116.960815429688	-516.1226196289062	-924.1239013671875	1112.855102539062	-652.0330200195312	-926.9155883789062	1154.64599609375	-588.3677978515625	-694.3101196289062	1340.239990234375	-590.7245483398438	-948.4566650390625	1309.12451171875	-594.5048217773438	-889.2509155273438	1598.802368164062	-609.1463012695312	-718.5902709960938	1477.509765625	-593.6146240234375	-960.4255981445312	1418.11669921875	-522.888427734375	-892.2081909179688	1579.259155273438	-711.3038330078125	-804.056884765625	1557.249267578125	-775.5907592773438	-830.6796264648438	1428.538330078125	-848.5501708984375	-838.5599365234375	1209.626098632812	-873.171142578125	-911.1780395507812	1204.580444335938	-825.2540893554688	-770.0552368164062	944.6104125976562	-817.1383056640625	-846.7604370117188	925.8319091796875	-856.0219116210938	-832.2002563476562	1092.12451171875	-875.9348754882812	-776.06640625	752.3870849609375	-794.0841674804688	-823.5817260742188	848.8353271484375	-852.1956787109375	-760.7652587890625	855.2105102539062	-825.747802734375	-843.1653442382812	1574.14453125	-424.6986389160156	-868.5138549804688	1502.058349609375	-362.0590515136719	-907.0739135742188	1210.363159179688	-341.6489868164062	-902.3749389648438	1207.828002929688	-438.5922241210938	-779.1550903320312	959.1743774414062	-335.6560668945312	-856.788818359375	947.4530029296875	-311.814208984375	-890.6658935546875	1136.397827148438	-322.5427856445312	-765.2706909179688	762.2318725585938	-346.6570129394531	-757.234375	849.9521484375	-325.5950012207031	-826.3191528320312	845.831787109375	-302.7101745605469	-850.1486206054688	1756.917602539062	-524.6205444335938	-672.4451904296875	1827.854736328125	-632.250732421875	-688.2433471679688	1823.197998046875	-503.3776245117188	-842.9539794921875	1765.921020507812	-659.690185546875	-835.9124145507812	1016.817321777344	-759.65380859375	-789.821044921875	1025.469848632812	-397.741455078125	-709.6062622070312	1092.1337890625	-456.8644409179688	-725.9297485351562	1080.724243164062	-721.0298461914062	-767.89013671875	505.4008178710938	-744.1296997070312	-798.5978393554688	658.2252197265625	-761.89794921875	-1200.970703125	182.3133392333984	-738.4959106445312	-1003.006408691406	362.74609375	-765.9507446289062	-1050.070678710938	35.38140869140625	-669.64892578125	-1099.58642578125	86.05619049072266	-641.181884765625	-1137.19775390625	76.45088195800781	-747.949951171875	-1233.421997070312	246.8938598632812	-682.7230834960938	-715.9414672851562	539.5980834960938	-471.9680480957031	-742.0009155273438	813.1858520507812	-415.9315490722656	-773.5699462890625	25.70184707641602	-525.311767578125	-724.1079711914062	402.2731323242188	-468.9844360351562	-542.8555297851562	48.50786590576172	-572.5272216796875	-601.0846557617188	34.69963455200195	-614.6656494140625	-641.6503295898438	41.26863861083984	-501.9448547363281	-828.55224609375	26.7832202911377	-575.3443603515625	
